<svg width="48" height="54" viewBox="0 0 48 54" fill="none" xmlns="http://www.w3.org/2000/svg">
<path d="M35.2767 26.4354C36.1863 26.6459 37.1685 26.8264 38.2284 26.9851C37.1685 27.1438 36.1863 27.3243 35.2767 27.5348C32.0531 28.2808 29.6276 29.4277 27.8516 31.4172C26.0879 33.3929 25.0727 36.0803 24.4093 39.6773C24.2526 40.527 24.1143 41.4343 23.9906 42.4032C23.8666 41.4342 23.7281 40.5268 23.5712 39.6771C22.9068 36.08 21.891 33.3927 20.1269 31.4171C18.3505 29.4276 15.9248 28.2808 12.7011 27.5348C11.7915 27.3243 10.8093 27.1438 9.74938 26.9851C10.8093 26.8264 11.7915 26.6459 12.7011 26.4354C15.9248 25.6894 18.3505 24.5426 20.1269 22.5532C21.891 20.5775 22.9068 17.8902 23.5712 14.2931C23.7281 13.4434 23.8666 12.536 23.9906 11.567C24.1143 12.5359 24.2526 13.4433 24.4093 14.2929C25.0727 17.89 26.0879 20.5774 27.8516 22.5531C29.6276 24.5426 32.0531 25.6894 35.2767 26.4354Z" stroke="#FC3314" stroke-width="2"/>
</svg>
